<svg xmlns="http://www.w3.org/2000/svg" version="1.1" xmlns:xlink="http://www.w3.org/1999/xlink" xmlns:svgjs="http://svgjs.dev/svgjs" width="128" height="128" viewBox="0 0 128 128"><g transform="matrix(0.44782608695652176,0,0,0.44782608695652176,35.33913043478261,12.5)"><svg viewBox="0 0 125 225" data-background-color="#ffffff" preserveAspectRatio="xMidYMid meet" height="230" width="128" xmlns="http://www.w3.org/2000/svg" xmlns:xlink="http://www.w3.org/1999/xlink"><g id="tight-bounds" transform="matrix(1,0,0,1,-1.4210854715202004e-14,0)"><svg viewBox="0 0 125 225" height="225" width="125"><g><svg></svg></g><g><svg viewBox="0 0 125 225" height="225" width="125"><g><path d="M33.402 55.033c0-0.436 0.218-0.872 0.654-0.872 0.436 0 0.872 0.218 0.872 0.872 0.218 0 0.654 0 0.873-0.218 0.872 0 1.745-0.218 2.399 0 0.654 0.218 1.09 0.218 1.744 0.436 0.654 0.218 1.09 0 1.527-0.218 0.872-0.218 1.527-0.654 2.399-0.872 0.436-0.218 0.654-0.218 1.091-0.218 0.436-0.218 0.872-0.218 1.526-0.437 1.09-0.218 2.181-0.436 3.053-0.872 0.872-0.436 1.745-0.436 2.618-0.654 0.436 0 0.654-0.218 1.09-0.436 0.218 0 0.218-0.218 0.436-0.437 0.436-0.218 0.654-0.436 1.091-0.218 0.218 0.218 0.654 0.218 0.872 0h0.218c1.309 0 2.617-0.218 4.144 0 0.218 0 0.436 0 0.436 0 0.654-0.436 1.527-0.436 2.399-0.436 0.218 0 0.654 0 0.872 0h0.218c0.872 0 1.745 0 2.399 0.218 0.654 0 1.09 0.218 1.745 0.436 0.654 0 1.09 0 1.745 0.218 0.436 0 0.872 0 1.308 0 0.218 0 0.436 0 0.437 0 0.872 0.218 1.745 0.218 2.617 0.219 0.654 0.218 1.309 0.436 2.181 0.436 0.218 0 0.436 0 0.654 0 0.218 0 0.436 0.218 0.654 0.218l0.218 0.218c0.872 0 1.527 0.436 2.399 0.436 0.218 0 0.654 0 0.873 0.218 0.654 0.436 1.527 0.654 2.399 0.654 0.436 0 0.654 0.218 0.872 0.437 0.654 0.218 1.09 0.436 1.745 0.654 0.436 0.218 0.872 0 1.308 0.218 0.654 0.218 1.527 0.436 2.181 1.09 0.436 0.436 0.872 0.436 1.527 0.873 0.218 0 0.436 0.218 0.654 0.436 0.654 0.436 1.309 0.872 1.963 1.09 0.218 0 0.436 0.218 0.654 0.219 0.654 0.436 1.309 1.09 2.181 1.526 0.436 0.218 0.654 0.436 1.091 0.654h0.218c0.654 0.654 1.527 1.09 2.181 1.745 0.654 0.654 1.09 1.09 1.962 1.527 0 0 0 0 0 0.218 0.218 0.436 0.436 0.654 0.873 0.872 0.436 0.218 0.654 0.436 0.872 0.655 0.654 0.436 1.309 0.872 1.745 1.308 0.218 0.218 0.436 0.436 0.872 0.872 0.218 0.218 0.436 0.436 0.654 0.437 0.872 0.218 1.309 0.872 1.963 1.526 0.436 0.436 1.09 1.09 1.527 1.527 0.218 0.218 0.436 0.654 0.654 1.09 0.436 1.309 1.09 2.617 1.745 3.708 0 0 0 0.218 0.218 0.436v0.218c0.436 0.436 0.654 1.09 1.09 1.527 0.218 0.218 0.218 0.436 0.437 0.654 0.436 0.654 0.654 1.527 1.09 2.181 0.654 1.09 1.09 2.181 1.527 3.271v0.218c0.218 0.436 0.436 0.872 0.654 1.527 0 0.436 0.436 0.872 0.654 1.527 0.218 1.09 0.872 2.181 1.091 3.489 0 0.218 0.218 0.436 0.218 0.873 0.218 0.654 0.436 1.309 0.654 1.962 0 0.218 0.218 0.436 0.436 0.655 0.436 0.436 0.436 0.872 0.436 1.308-0.218 0.872 0 1.745 0.219 2.617 0 0.218 0 0.436 0 0.873 0.218 0.872 0.436 1.963 0.436 2.835 0 0.218 0 0.654 0 0.872 0 0.654 0.218 1.309 0.654 1.963 0 0.218 0.218 0.218 0.218 0.218 0.218 0.218 0.436 0.654 0.654 0.872 0.218 0.218 0.218 0.218 0.437 0.437 0.436 0.436 0.654 0.872 0.654 1.526 0 0.218-0.218 0.654-0.218 0.873 0 0.218 0 0.654 0.218 0.872 0.218 0.218 0.218 0.436 0.218 0.654 0 0.218-0.218 0.436-0.436 0.436v0c-0.218 0.654-1.09 0.872-1.309 1.527-0.218 0.872-0.436 1.745-0.654 2.617-0.218 0.654-0.218 1.09-0.218 1.745 0 0.654-0.218 1.09-0.218 1.745-0.218 0.872-0.436 1.745-0.655 2.617 0 0.436-0.218 0.872-0.218 1.308 0.218 0.218 0.436 0.436 0.655 0.436 0.436 0.436 0.872 0.872 1.308 1.309 0.218 0.218 0.218 0.436 0 0.436-0.218 0.218-0.436 0.218-0.654 0.218-0.218-0.218-0.654-0.436-0.872-0.436-0.218-0.218-0.654-0.436-1.091-0.218 0 0.436-0.218 0.872-0.218 1.09-0.218 0.436-0.436 1.09-0.436 1.527-0.218 0.872-0.654 1.527-0.873 2.399-0.436 1.09-0.872 1.963-1.308 2.835-0.218 0.436-0.436 0.872-0.654 1.309v0c0 0.654-0.654 1.309-0.873 1.963-0.436 0.872-0.872 1.745-1.308 2.835-0.218 0.436-0.436 0.872-0.655 1.09-0.436 1.09-0.872 1.963-1.526 2.836-0.436 0.654-0.872 1.09-1.309 1.308-0.436 0.436-0.872 0.872-1.308 1.309-0.218 0.218-0.436 0.436-0.655 0.654-0.218 0.218-0.218 0.218-0.436 0.436-0.436 0.654-1.09 1.09-1.526 1.745-0.436 0.436-0.654 0.872-1.309 1.308-0.436 0.436-0.872 1.09-1.527 1.309-0.218 0.218-0.436 0.654-0.654 0.872-0.218 0.218-0.436 0.654-0.654 0.873 0 0.436 0.218 0.872 0.218 1.09 0 0.654-0.654 0.872-1.09 0.436-0.654-0.436-0.654-0.436-1.309 0-0.654 0.436-1.309 1.09-2.181 1.309-0.218 0-0.218 0.218-0.436 0.218-0.436 0.218-0.654 0.654-1.091 0.872-0.436 0.436-1.09 0.654-1.526 1.091-0.218 0.218-0.436 0.218-0.655 0.436-0.654 0.436-1.309 0.654-1.962 1.308-0.218 0.218-0.436 0.218-0.655 0.437 0 0.218 0 0.218 0 0.436 0 0.436-0.436 0.872-1.09 0.654-0.654-0.218-1.09 0-1.745 0-0.654 0.218-1.309 0.654-1.963 0.872-0.218 0-0.436 0.218-0.654 0.437-0.654 0.436-1.309 0.654-1.963 0.872-0.436 0-0.872 0.436-1.308 0.436-0.218 0-0.436 0.218-0.655 0.218h-0.218c-0.872 0.654-1.745 1.09-2.617 1.745-0.218 0-0.218 0.218-0.436 0.436-0.218 0.436-0.436 0.654-0.872 0.654-1.09 0-1.527 0.872-1.309 1.745 0 0.218 0.218 0.436 0.218 0.654 0.218 0.436 0 0.872-0.218 1.091-0.218 0.218-0.872 0.218-1.09-0.218-0.436-0.436-0.654-0.872-0.873-1.527-0.218-0.436-0.654-0.872-1.09-1.09-0.436-0.218-0.872-0.218-1.309 0-0.218 0-0.218 0.218-0.436 0.218-0.436 0.436-1.09 0.654-1.745 0.436-0.218 0-0.654 0-0.654 0.218-0.218 0.218-0.218 0.654 0 0.872 0.436 0.436 0.218 0.872 0.218 1.527 0 0.872-0.654 1.309-1.526 0.872-0.218-0.218-0.436-0.218-0.655-0.436-0.218 0-0.218-0.218-0.218-0.436-0.218-0.218-0.218-0.654-0.436-1.09-0.436 0.218-0.872 0.218-1.308 0.436-0.218 0-0.436 0.218-0.655 0.218-0.654 0-0.872 0-1.09-0.654-0.218-0.654-0.654-0.654-1.091-0.873-0.872-0.218-1.963-0.218-2.835-0.654h-0.218c-0.872-0.654-1.745-0.654-2.835-0.654-0.654 0-1.309 0.218-1.963 0.218-0.654 0-1.09 0.218-1.527 0.654-0.218 0.218-0.436 0.436-0.654 0.436-0.218-0.218-0.218-0.436-0.436-0.654v-0.218c0-0.218-0.218-0.436-0.436-0.218-0.436 0.218-0.872-0.218-1.309-0.436-0.218-0.218-0.654-0.654-0.654-1.091-0.218-0.218-0.436-0.436-0.654-0.436-0.436 0-1.09-0.218-1.527-0.218-0.218 0-0.436 0-0.436-0.218-0.218-0.218-0.436-0.218-0.872-0.218-0.218 0-0.218-0.218-0.437-0.218 0.436 0.436 0.654 0.872 0.873 1.308 0 0.218 0.218 0.218 0.218 0.436 0.218 0.436 0 0.654-0.654 0.655-0.436 0-0.436 0-0.655 0.218 0 0.436 0 0.654 0 1.09 0 0.218 0 0.436-0.436 0.654 0 0-0.218 0-0.218 0.219-0.218 0.218-0.218 0.436 0 0.654 0.654 0.436 1.09 0.654 1.745 0.872 0.654 0 0.654 0.436 0.872 0.872 0.218 0.436 0 0.654-0.218 1.091-0.436 0.436-0.872 0.872-1.309 1.309-0.654 0.218-1.09 0.872-1.744 0.872-0.436 0-0.872-0.218-1.091-0.654-0.218-1.09-0.218-1.963 0.218-3.054 0-0.218 0.218-0.436 0-0.654-1.963 0-1.963-0.436-1.962-0.654 0-0.436 0.218-0.654 0.218-1.091 0.218-0.436 0-0.654-0.655-0.872-0.218 0-0.436 0-0.654 0-0.218 0-0.218-0.218-0.654-0.218 0.436-0.218 0.654-0.218 1.09-0.436-0.218-0.872-0.436-1.527-1.09-1.963-0.218-0.218-0.436-0.436-0.436-0.872 0-0.654-0.436-1.09-0.655-1.527-0.436-0.654-1.309-0.872-1.962-0.872-0.654-0.218-1.09-0.218-1.745-0.437-0.654-0.218-1.309-0.872-1.963-1.09-0.218-0.218-0.436-0.436-0.872-0.654-0.872-0.436-1.527-1.09-2.181-1.745-0.436-0.218-0.654-0.654-1.091-0.872-0.436-0.436-0.654-0.872-1.09-1.091-0.436-0.436-0.872-0.872-1.527-1.309-0.654-0.436-1.09-1.09-1.745-1.744-0.436-0.654-1.09-1.09-1.744-1.527-0.218 0-0.436 0-0.655 0-0.218 0-0.436 0.218-0.654 0.218-0.654 0.218-1.09 0.654-1.745 0.873 0.218-0.218 0.218-0.218 0-0.655-0.218-0.218-0.436-0.436-0.654-0.436-0.436 0-0.872 0-1.308 0-0.872 0-1.745 0.218-2.617 0.218-0.654 0-1.527 0.218-2.181 0.436 0.218 0.436 0.218 0.654 0.436 1.091-0.436 0.218-0.872 0.218-1.309 0.218-0.218 0-0.654 0.218-0.872 0.436-0.218 0-0.218 0.218-0.436 0-0.436-0.218-0.872 0-1.309 0.218h-0.218c0 0 0-0.218 0.218-0.218 0.218-0.218 0.436-0.436 0.654-0.654 0.218-0.218 0.436-0.218 0.873-0.436-0.218-0.218-0.218-0.436-0.218-0.437-0.218-0.218-0.436-0.218-0.655 0-0.218 0.218-0.436 0.436-0.654 0.655-0.218 0.218-0.436 0.218-0.654 0-0.218-0.218-0.218-0.436 0-0.655 0-0.218 0.218-0.436 0.436-0.654 0.218-0.218 0.218-0.436 0.436-0.654-0.436-0.436-0.654-0.872-1.09-1.091-0.654-0.436-1.309-1.09-1.745-1.744-0.436-0.872-1.09-1.527-1.963-1.963-0.218-0.218-0.436-0.436-0.654-0.654-0.218-0.218-0.218-0.218-0.436-0.437-0.654 0.218-1.09 0.654-1.745 0.873-0.218 0-0.218 0.218-0.436 0.436-0.218 0.436-0.654 0.436-1.091 0.436-0.218 0-0.436-0.218-0.218-0.436 0.218-0.436 0.436-0.872 1.091-0.654 0 0 0.218 0 0.218-0.218 0.436-0.436 0.872-1.09 1.527-1.527-0.218-0.654-0.654-1.09-0.873-1.527-0.218-0.218-0.218-0.436-0.218-0.872 0-0.218 0-0.218-0.218-0.436 0 0-0.218 0-0.436 0.218-0.218 0.218-0.654 0.436-1.091 0 0-0.218 0-0.436 0.218-0.654l0.219-0.218c0.654-0.218 0.654-0.872 0.654-1.527v-0.218c-0.218-0.436-0.218-0.654 0.218-1.091 0.654-0.436 1.309-1.309 1.527-1.962 0.218-0.436 0.654-0.654 1.09-1.091 0.436-0.436 0.872-0.872 1.09-1.527h0.219c0.872 0.218 1.09-0.436 1.526-1.09 0-0.218 0-0.436 0.218-0.436 0.436-0.436 0.436-0.872 0.218-1.527 0-0.218-0.218-0.654-0.218-0.872 0-0.218 0-0.218-0.218-0.436-0.654-0.436-0.654-0.872 0-1.309 0.436-0.218 0.436-0.654 0.654-0.872 0.218-0.436 0.218-0.872 0.219-1.527-0.218-0.654-0.218-1.527-0.437-2.181-0.218-0.872-0.436-1.963-0.654-2.835 0-0.218 0-0.218 0-0.436 0-0.654 0-1.09-0.218-1.745-0.218-0.218-0.218-0.654-0.218-0.872-0.218-0.654-0.436-1.09-1.091-1.309-0.654-0.436-1.527-0.654-2.18-1.09-0.218-0.218-0.436 0-0.655 0.218-0.218 0.436-0.654 0.872-0.872 1.308-0.218 0.218-0.436 0.654-0.654 1.091-0.436 0.436-1.309 0.872-1.963 0.218-0.218-0.436-0.436-0.654 0-1.091 0.436-0.654 0.872-1.309 1.526-1.744 0.218-0.218 0.436-0.654 0.655-0.873 0.218-0.436 0.218-0.872 0.218-1.308-0.218-0.872-0.436-1.745-0.436-2.835 0-1.09 0-1.963 0.218-3.054 0.218-0.436 0.218-1.09 0.436-1.526 0-0.218 0.218-0.654 0.436-0.873 0.436-0.436 0.872-0.872 1.091-1.526 0.218-0.654 0.654-1.309 0.654-1.963 0-0.218 0.218-0.436 0.218-0.654 0-0.218 0.218-0.654 0.218-0.873-0.218-0.654 0-1.09 0.218-1.526 0.218-0.436 0.436-1.09 0.654-1.527 0.436-0.872 0.436-1.963 1.309-2.835 0.218-0.436 0.436-0.872 0.654-1.309 0.218-0.872 0.654-1.527 1.091-2.181 0.218-0.218 0.218-0.218 0.218-0.436 0.218-0.654 0.654-1.309 1.09-1.963 0.436-0.654 0.436-1.309 0.654-1.962 0-0.218 0-0.436 0.219-0.655 0.654-0.654 0.436-1.527 0.218-2.399-0.436-1.09-0.654-2.181-0.437-3.271 0-0.218 0-0.436 0.219-0.436 0.218-0.436 0.218-0.654 0.436-1.091v-0.218c0.436-0.436 0.872-1.09 1.526-1.308 0.872-0.436 1.745-0.654 2.836-0.873 0.872 0 1.745-0.436 2.399-1.308 0-0.218 0.218-0.218 0.436-0.437l0.218-0.218c0.218-0.436 0.436-0.654 0.654-0.872 0.436-0.436 0.872-1.09 1.309-1.527 0.436-0.436 0.872-1.09 1.526-1.744l0.218-0.218c0.436-0.436 0.872-0.872 1.309-1.091 0.436-0.436 0.872-0.872 1.308-1.308 0.436-0.436 0.654-0.872 1.091-1.309 0.436-0.218 0.872-0.654 1.308-1.09 0.436-0.436 0.872-0.872 1.091-1.091 0.436-0.436 1.09-0.872 1.527-1.09 0.436-0.218 0.872-0.436 1.09-1.091 0.218-0.654 0.436-1.09 0.654-1.745 0-0.436 0.218-0.872 0.436-1.308 0.218 0 0.436 0 0.873-0.218-0.218-0.218-0.436-0.218-0.436-0.436 0-0.218 0.218-0.436 0.218-0.437 0-0.218 0.218-0.436 0.218-0.654 0 0 0.218 0 0.218-0.218 0 0 0.218 0 0.218-0.218-0.436 0.218-0.654 0-0.872-0.218 0.218 0.218 0.436 0.218 0.872 0.436 0 0 0.218 0 0.218-0.218 0-0.218 0-0.436 0-0.436 0 0-0.218 0-0.436 0-0.218 0-0.436 0.218-0.654 0.218zM71.131 157.536c0-0.218-0.218-0.218-0.218-0.436-0.218-0.436 0-0.654 0.218-0.873 0.218-0.218 0.436-0.218 0.873-0.218 0.436 0.218 0.654 0.436 0.654 0.873 0 0.218 0 0.654 0 0.872 0.218 0.872 0.218 0.872 1.091 0.872 0.436 0 0.872 0 1.308 0 0.872-0.218 1.745-0.654 2.617-0.872 0.872-0.218 1.745-0.436 2.617-0.654 0.218 0 0.436 0 0.873 0 0.872 0.218 1.527 0 2.181-0.437 0.218-0.218 0.654-0.218 0.872-0.436 0.436-0.218 0.872-0.218 1.308-0.436 1.09-0.654 2.181-1.09 3.054-1.745 0.654-0.436 1.309-0.872 1.963-1.308 0.654-0.436 1.309-0.872 1.962-1.309 0.436-0.218 1.09-0.654 1.527-1.09 0.872-0.654 1.527-1.309 2.399-1.745 0.436-0.218 0.654-0.436 0.872-0.654 0.436-0.218 0.654-0.654 1.091-0.873 0.218-0.218 0.436-0.436 0.872-0.654 0.218-0.218 0.218-0.218 0.218-0.436 0.654-0.436 1.309-1.309 1.745-1.963 0.436-0.436 0.872-0.872 1.309-1.526 0.654-0.654 1.09-1.527 1.744-2.399 0.436-0.436 0.872-1.09 1.091-1.527 0.436-0.872 0.872-1.745 1.526-2.399v-0.218c0.436-0.872 0.872-1.745 1.309-2.617 0.654-1.09 1.09-2.399 1.745-3.49 0.218-0.436 0.436-0.872 0.436-1.308 0.436-0.872 0.654-1.745 0.872-2.617 0-0.218 0-0.218 0.218-0.437 0.654-1.309 1.09-2.617 1.309-4.143 0.218-0.872 0.436-1.745 0.654-2.617 0.436-1.309 0.436-2.399 0.654-3.708 0.218-0.872 0.218-1.963 0.218-2.835 0.218-1.309 0.218-2.835 0-4.144 0-1.09-0.218-2.399-0.218-3.489 0-1.09-0.218-1.963-0.436-3.054-0.218-1.09-0.436-1.963-0.654-3.053-0.436-0.872-0.654-1.745-0.872-2.835-0.218-0.872-0.654-1.527-0.655-2.399 0-0.654-0.218-1.309-0.872-1.527-0.654-0.218-1.09-0.436-1.745-0.872-1.309-0.872-1.963-1.963-1.744-3.271 0-0.654 0.218-1.527 0.436-2.181 0.218-0.654 0.436-1.309 0-1.745-0.218-0.654-0.654-1.09-0.873-1.527-0.436-0.654-0.654-1.09-1.09-1.526-0.436-0.872-0.872-1.745-1.527-2.399-0.872-1.09-1.527-2.181-2.617-3.054l-0.218-0.218c-0.654-0.872-1.309-1.745-2.181-2.399-0.436-0.436-0.872-0.872-1.308-1.09-0.218-0.218-0.436-0.436-0.873-0.654-0.654-0.436-1.309-0.654-1.745-1.091-0.654-0.654-1.527-1.09-2.18-1.527 0 0-0.218 0-0.219-0.218-0.872-0.436-1.527-0.654-2.399-1.09-0.872-0.436-1.745-0.654-2.617-0.654-0.218 0-0.218 0-0.436 0-0.218-0.218-0.654-0.218-0.872-0.218-0.218 0-0.218 0-0.436 0-0.436-0.218-1.09 0-1.527 0-0.872 0.218-1.745 0.218-2.617-0.219-1.09-0.436-1.963-0.872-2.835-1.308-0.654-0.436-1.09-0.872-1.745-1.309-1.309-1.09-2.617-2.399-4.144-3.489 0.218-1.09-0.218-1.309-1.09-1.309-0.436 0-0.872 0.218-1.309 0.437-0.218 0.218-0.218 0.218-0.436 0.436-0.654 0.436-1.09 1.09-1.745 1.526-1.09 0.654-1.527 0.436-2.399 0-0.218-0.218-0.436-0.436-0.654-0.654-0.436-0.436-0.872-1.09-1.09-1.527-0.436-0.872-1.309-0.872-2.181-0.872-0.436 0-1.09 0.218-1.527 0.218-0.872 0-1.745 0.436-2.181 1.091-0.436 0.654-0.872 1.309-1.526 1.962-0.218 0.218-0.654 0.436-0.873 0.873-0.436 0.436-0.872 0.436-1.308 0-0.218-0.218-0.436-0.218-0.655-0.436-0.218 0.218-0.436 0.436-0.436 0.654-0.218 0.436-0.436 0.872-0.654 1.527-0.218 0.654-0.654 1.309-1.091 1.744-0.218 0.218-0.218 0.218-0.436 0.436-0.218 0.436-0.872 0.654-1.308 0.655-0.436 0.436-0.872 1.09-1.091 1.526-0.218 0.436-0.436 0.872-0.654 1.527-0.218 0.218-0.218 0.654-0.436 0.872-0.218 0.436-0.218 0.654-0.218 1.091 0.218 0.654-0.218 0.872-0.873 1.09-0.436 0-0.436 0-0.654 0.436 0 0.654 0.218 1.09 0.436 1.745 0.218 0.218 0.436 0.654 0.436 0.873 0 0.436 0.218 0.654 0.655 0.872 0.218 0.218 0.436 0.436 0.654 0.436 0.218 0 0.218 0.218 0.436 0.218 0.218 0.218 0.436 0 0.436-0.218 0.218-0.654 0.436-1.309 0.437-1.963 0.218-0.872 0.218-1.527 0.436-2.399 0.218-0.436 0.436-0.654 0.654-0.872 0 0 0.218 0 0.436 0v0.218c-0.218 1.09-0.654 2.399-0.872 3.489-0.218 0.436-0.218 0.872-0.436 1.309 0 0.218-0.218 0.436-0.437 0.436-0.436 0.218-0.872 0.436-1.308 0.436-0.218 0-0.436 0-0.654 0-0.436-0.218-0.872-0.654-1.309-0.872-0.218-0.218-0.436-0.436-0.654-0.654-0.218-0.436-0.436-0.872-0.654-1.309-0.218-0.436-0.436-0.654-0.873-0.872-0.218-0.218-0.436-0.218-0.654-0.436-0.436-0.436-0.872-0.654-1.527-0.655-0.218 0-0.654 0-0.872 0-0.218 0-0.654 0.218-0.872 0.437-0.436 0.218-0.654 0.218-1.091 0-1.09-0.436-2.181-0.218-3.271 0.218-0.436 0.218-0.872 0.436-1.309 0.436-1.09 0-1.963 0-3.053 0-1.09 0-1.963-0.218-3.053-0.436-0.436 0-0.872 0-1.309 0-0.872 0.218-1.09 0.872-0.872 1.744 0.218 0.872 0.436 1.963 0.436 2.836 0 0.654 0 1.309 0 1.962 0 0.436 0 0.654 0 1.091 0 0.654-0.218 1.309-0.218 1.963-0.218 1.309-0.872 2.399-1.745 3.271-0.654 0.654-1.527 1.309-2.399 1.527-0.436 0.218-0.872 0.436-1.527 0.654-1.09 0.436-1.963 1.309-2.617 2.399-0.218 0.436-0.436 0.872-0.654 1.309-0.436 0.654-0.654 1.09-1.09 1.744-0.218 0.436-0.654 0.872-0.873 1.309-0.218 0.436-0.654 0.654-0.654 1.09-0.436 0.872-0.654 1.745-1.09 2.617-0.218 0.436-0.218 1.09-0.437 1.527-0.436 0.872-0.436 1.745-0.436 2.835 0 0.218 0 0.436 0 0.873 0 1.09-0.218 2.399-0.218 3.489 0 1.09 0 2.181 0.218 3.271 0 0.436 0 1.09 0 1.527 0 0.872 0.218 1.963 0.218 2.835 0 0.872 0 1.963 0.436 2.835v0.218c0.218 0.872 0.218 1.745 0.437 2.618 0 0.218 0 0.436 0.218 0.654 0.436 1.309 0.654 2.399 1.09 3.707 0.218 0.872 0.654 1.745 0.873 2.617 0.218 0.872 1.09 1.745 1.308 2.836v0c0.654 1.309 1.309 2.617 2.181 3.925 0.218 0.436 0.654 0.872 0.872 1.309 0.436 0.654 0.654 1.309 1.091 1.745 0.218 0.436 0.654 0.872 0.872 1.09 0.218 0.436 0.436 0.872 0.873 1.309 0.436 0.436 0.872 1.09 1.308 1.526 0.654 1.09 1.527 1.963 2.399 2.617 0.436 0.436 0.872 0.654 1.309 1.091 0.218 0.218 0.436 0.218 0.436 0.436 0.218 0.218 0.436 0.436 0.872 0.654 1.745 0.872 3.053 2.181 4.58 3.49 0.654 0.654 1.309 1.309 2.181 1.744 0.872 0.654 1.527 1.309 2.617 1.527 0 0 0.218 0 0.218 0.218 0.436 0.436 1.09 0.654 1.527 0.873 0.872 0.436 1.963 0.872 2.835 1.308 0.218 0.218 0.654 0.218 0.872 0.436 0.654 0.218 1.309 0.436 1.963 0.655 0.654 0.218 1.09 0.436 1.745 0.436h0.218c0.436 0.218 0.654 0.218 1.09 0 0.218 0 0.436 0 0.437 0.218 0 0.218 0.218 0.218 0.436 0.218 0.218 0 0.436 0 0.872 0 0.218-0.218 0.218-0.436 0.436-0.872 0.218 0.218 0.436 0.218 0.437 0.218 0.218 0.436 0.654 0.436 1.09 0.436h0.218c0.436 0 0.654 0 0.872-0.218 0-0.218 0.436-0.218 0.655-0.218 0.654 0.218 1.309 0.218 1.963 0.436 0.436 0.218 1.09 0.218 1.308-0.218 0.218-0.218 0.436-0.436 0.872-0.218 0.436 0.218 0.654 0.218 1.091 0 0.218 0 0.436 0 0.436 0 0.654 0.218 1.09 0.218 1.745 0.436 0.872 0.218 0.872 0.218 1.526-0.436 0.218-0.218 0.654-0.218 0.873 0 0.218 0.436 0.218 0.654 0.218 1.09 0.218 0 0.218 0 0.436-0.218 0-0.436 0.218-0.436 0.654-0.654 0.218 0.218 0.218 0.218 0.437 0.218 0.436 0.436 0.654 0.436 0.872-0.218 0-0.218 0-0.436 0.218-0.436 0.218 0 0.436 0.218 0.436 0.218 0.218 0.436 0.654 0.654 0.873 1.09 0.436 0.436 1.09 0.436 1.308 0 0.218-0.218 0.436-0.218 0.654-0.218 0-0.218 0-0.436 0-0.654 0.654 0.436 0.436 0.436 0.218 0.436zM34.928 55.687c0.654 0.218 1.09 0.218 1.309-0.218-0.436 0.218-0.872-0.218-1.309 0.218z" fill="#0080ff" fill-rule="nonzero" stroke="none" stroke-width="1" stroke-linecap="butt" stroke-linejoin="miter" stroke-miterlimit="10" stroke-dasharray="" stroke-dashoffset="0" font-family="none" font-weight="none" font-size="none" text-anchor="none" style="mix-blend-mode: normal" data-fill-palette-color="tertiary"></path></g><g transform="matrix(1,0,0,1,39.325,88.00361842105264)"><svg viewBox="0 0 46.35 48.992763157894736" height="48.992763157894736" width="46.35"><g><svg viewBox="0 0 46.35 48.992763157894736" height="48.992763157894736" width="46.35"><g><svg viewBox="0 0 46.35 48.992763157894736" height="48.992763157894736" width="46.35"><g><svg viewBox="0 0 46.35 48.992763157894736" height="48.992763157894736" width="46.35"><g><svg viewBox="0 0 46.35 48.992763157894736" height="48.992763157894736" width="46.35"><g transform="matrix(1,0,0,1,0,0)"><svg width="46.35" viewBox="-8.01 -52.05 55.669999999999995 58.839999999999996" height="48.992763157894736" data-palette-color="#0080ff"><path d="M47.66-46.53L47.66-46.53Q47.27-46.29 46.83-46.24 46.39-46.19 45.92-46.12 45.46-46.04 45.07-45.9 44.68-45.75 44.48-45.36L44.48-45.36Q43.99-45.85 43.41-46.19 42.82-46.53 42.24-46.92L42.24-46.92Q41.75-46.78 41.26-46.53 40.77-46.29 40.28-46.29L40.28-46.29Q39.94-46.29 39.6-46.53L39.6-46.53Q39.21-46.24 38.7-46.07 38.18-45.9 37.62-45.75 37.06-45.61 36.6-45.36 36.13-45.12 35.94-44.63L35.94-44.63Q35.84-44.87 35.47-44.78 35.11-44.68 35.06-45.02L35.06-45.02Q33.5-44.48 31.88-44.09 30.27-43.7 28.66-43.26 27.05-42.82 25.49-42.29 23.93-41.75 22.46-40.97L22.46-40.97Q22.41-40.92 22.41-40.82L22.41-40.82Q22.41-40.33 22.56-39.89 22.71-39.45 22.8-39.06L22.8-39.06Q21.92-36.08 21.63-33.01 21.34-29.93 20.85-26.95L20.85-26.95 20.85-26.76Q20.85-26.51 21.04-26.39 21.24-26.27 21.24-25.98L21.24-25.98 21.19-25.88Q20.95-25.73 20.85-25.46 20.75-25.2 20.75-24.9L20.75-24.9Q20.75-24.71 20.85-24.32L20.85-24.32Q20.02-21.53 19.75-18.65 19.48-15.77 19.09-12.89L19.09-12.89 18.65-9.67Q18.55-9.38 18.48-9.11 18.41-8.84 18.41-8.54L18.41-8.54Q18.41-6.98 18.63-5.49 18.85-4 18.75-2.44L18.75-2.44Q19.19-1.76 19.19-1.12L19.19-1.12Q19.19-0.88 19.17-0.63 19.14-0.39 19.09-0.15L19.09-0.15Q19.73 0.49 20.58 0.76 21.44 1.03 22.12 1.61L22.12 1.61 22.12 1.81Q22.12 2.29 21.97 2.76 21.83 3.22 21.73 3.71L21.73 3.71Q21.63 4.1 21.51 4.83 21.39 5.57 21.19 5.81L21.19 5.81Q20.95 6.15 20.48 6.42 20.02 6.69 19.58 6.69L19.58 6.69Q19.43 6.69 19.17 6.54 18.9 6.4 18.75 6.3L18.75 6.3Q18.51 6.3 18.12 6.54 17.72 6.79 17.33 6.79L17.33 6.79Q17.14 6.79 16.99 6.76 16.85 6.74 16.65 6.64L16.65 6.64Q16.46 6.15 16.09 5.79 15.72 5.42 15.23 5.08L15.23 5.08Q15.28 4.39 14.99 4.05 14.7 3.71 14.4 3.17L14.4 3.17Q14.31 2.49 14.23 1.61 14.16 0.73 13.48 0.34L13.48 0.34Q13.72 0 13.72-0.59L13.72-0.59Q13.72-0.83 13.65-1.12 13.57-1.42 13.33-1.56L13.33-1.56 13.33-1.66Q13.28-1.9 13.5-2.03 13.72-2.15 13.72-2.39L13.72-2.39 13.72-2.59Q13.38-4.15 13.38-5.86L13.38-5.86Q13.38-7.47 13.48-9.06 13.57-10.64 13.48-12.26L13.48-12.26Q13.77-12.5 13.94-13.04 14.11-13.57 14.21-14.21 14.31-14.84 14.33-15.45 14.36-16.06 14.4-16.46L14.4-16.46Q14.65-19.24 15.19-21.95 15.72-24.66 15.82-27.49L15.82-27.49Q16.06-27.88 16.11-28.52 16.16-29.15 16.16-29.86 16.16-30.57 16.26-31.25 16.36-31.93 16.65-32.42L16.65-32.42Q16.65-33.79 16.89-35.18 17.14-36.57 17.14-37.99L17.14-37.99Q17.14-38.67 16.99-39.4L16.99-39.4Q16.5-39.6 16.11-39.6L16.11-39.6Q15.58-39.6 15.01-39.38 14.45-39.16 14.21-38.72L14.21-38.72Q13.13-38.67 12.11-38.38 11.08-38.09 10.06-38.09L10.06-38.09 9.57-38.09Q9.38-38.09 9.13-38.13L9.13-38.13Q8.79-37.99 8.42-37.89 8.06-37.79 8.11-37.3L8.11-37.3Q6.59-37.16 5.15-36.67 3.71-36.18 2.29-35.62 0.88-35.06-0.56-34.57-2-34.08-3.52-33.94L-3.52-33.94Q-4.05-33.69-4.2-32.91L-4.2-32.91Q-5.27-33.01-6.01-33.45-6.74-33.89-7.71-34.28L-7.71-34.28Q-8.01-35.3-8.01-36.23L-8.01-36.23Q-8.01-37.45-7.52-38.57-7.03-39.7-5.96-40.23L-5.96-40.23Q-5.71-40.19-5.52-40.16-5.32-40.14-5.08-40.14L-5.08-40.14Q-4.3-40.14-3.52-40.43-2.73-40.72-1.9-40.72L-1.9-40.72Q-1.66-40.72-1.37-40.58L-1.37-40.58Q-1.03-40.77-0.51-40.89 0-41.02 0.46-41.14 0.93-41.26 1.32-41.5 1.71-41.75 1.81-42.19L1.81-42.19Q2.05-41.99 2.34-41.94 2.64-41.89 2.93-41.89L2.93-41.89Q3.56-41.89 4.25-42.14 4.93-42.38 5.32-42.92L5.32-42.92Q5.66-42.53 6.3-42.53L6.3-42.53Q6.98-42.53 7.64-42.9 8.3-43.26 8.94-43.26L8.94-43.26Q9.42-43.26 9.67-42.92L9.67-42.92Q10.21-43.36 10.94-43.6 11.67-43.85 12.43-44.04 13.18-44.24 13.84-44.48 14.5-44.73 14.89-45.17L14.89-45.17Q15.14-45.12 15.67-45.12L15.67-45.12Q16.5-45.12 17.26-45.34 18.02-45.56 18.8-45.75L18.8-45.75 19.82-45.85Q20.21-45.9 20.53-46.09 20.85-46.29 21.19-46.44 21.53-46.58 21.9-46.68 22.27-46.78 22.8-46.73L22.8-46.73Q23.97-47.36 25.29-47.71 26.61-48.05 27.98-48.32 29.35-48.58 30.66-48.95 31.98-49.32 33.15-50.05L33.15-50.05 33.3-50.05Q34.28-50.05 35.23-50.39 36.18-50.73 37.01-51.32L37.01-51.32Q37.16-51.27 37.3-51.27L37.3-51.27 37.65-51.27Q39.01-51.27 40.31-51.66 41.6-52.05 43.02-52.05L43.02-52.05Q43.85-52.05 44.34-51.83 44.82-51.61 45.21-51.29 45.61-50.98 46.04-50.68 46.48-50.39 47.17-50.24L47.17-50.24Q47.61-49.41 47.61-48.46 47.61-47.51 47.66-46.53Z" opacity="1" transform="matrix(1,0,0,1,0,0)" fill="#0080ff" class="undefined-text-0" data-fill-palette-color="primary" id="text-0"></path></svg></g></svg></g></svg></g></svg></g></svg></g></svg></g></svg></g><defs></defs></svg><rect width="125" height="225" fill="none" stroke="none" visibility="hidden"></rect></g></svg></g></svg>